<svg width="20.000000" height="12.000000" viewBox="0 0 20 12" fill="none" xmlns="http://www.w3.org/2000/svg" xmlns:xlink="http://www.w3.org/1999/xlink">
	<desc>
			Created with Pixso.
	</desc>
	<defs/>
	<path id="Vector" d="M16.59 6.29C16.27 5.88 16.36 5.7 16.59 5.33C16.6 5.33 19.26 1.64 19.54 0.39L19.54 0.39C19.68 -0.07 19.54 -0.4 18.88 -0.4L16.69 -0.4C16.14 -0.4 15.88 -0.11 15.74 0.21C15.74 0.21 14.63 2.87 13.05 4.6C12.55 5.1 12.31 5.26 12.03 5.26C11.9 5.26 11.68 5.1 11.68 4.64L11.68 0.39C11.68 -0.16 11.53 -0.4 11.07 -0.4L7.63 -0.4C7.28 -0.4 7.07 -0.15 7.07 0.09C7.07 0.61 7.86 0.73 7.94 2.19L7.94 5.35C7.94 6.04 7.82 6.17 7.54 6.17C6.79 6.17 4.99 3.5 3.92 0.43C3.7 -0.16 3.49 -0.4 2.93 -0.4L0.75 -0.4C0.12 -0.4 0 -0.11 0 0.21C0 0.78 0.74 3.6 3.45 7.34C5.26 9.88 7.81 11.27 10.12 11.27C11.52 11.27 11.69 10.96 11.69 10.43C11.69 8 11.56 7.77 12.26 7.77C12.58 7.77 13.14 7.93 14.44 9.16C15.92 10.61 16.17 11.27 17 11.27L19.19 11.27C19.81 11.27 20.12 10.96 19.94 10.35C19.53 9.08 16.72 6.46 16.59 6.29Z" fill="#4B729F" fill-opacity="1.000000" fill-rule="nonzero"/>
</svg>
